<?xml version="1.0" encoding="UTF-8" standalone="no"?>
<!DOCTYPE svg PUBLIC "-//W3C//DTD SVG 1.1//EN" "http://www.w3.org/Graphics/SVG/1.1/DTD/svg11.dtd">
<svg width="100%" height="100%" viewBox="0 0 512 512" version="1.1" xmlns="http://www.w3.org/2000/svg" xmlns:xlink="http://www.w3.org/1999/xlink" xml:space="preserve" xmlns:serif="http://www.serif.com/" style="fill-rule:evenodd;clip-rule:evenodd;stroke-linejoin:round;stroke-miterlimit:2;">
    <g>
        <path d="M494.494,75.462C487.209,68.177 475.397,68.177 468.112,75.462C433.516,110.057 340.464,203.11 305.868,237.705C302.369,241.204 300.404,245.95 300.404,250.897C300.404,255.845 302.369,260.59 305.868,264.088C309.76,267.98 314.018,272.238 317.909,276.13C325.195,283.415 337.007,283.415 344.293,276.13C378.888,241.535 471.941,148.482 506.536,113.887C513.821,106.601 513.821,94.789 506.536,87.504C502.644,83.612 498.386,79.354 494.494,75.462Z" style="fill:rgb(255,127,80);"/>
        <path d="M494.494,235.87C487.209,228.585 475.397,228.585 468.112,235.87C433.516,270.465 340.464,363.518 305.868,398.113C302.369,401.612 300.404,406.358 300.404,411.305C300.404,416.253 302.369,420.998 305.868,424.496C309.76,428.388 314.018,432.646 317.909,436.538C325.195,443.823 337.007,443.823 344.293,436.538C378.888,401.943 471.941,308.89 506.536,274.295C513.821,267.009 513.821,255.197 506.536,247.912C502.644,244.02 498.386,239.762 494.494,235.87Z" style="fill:rgb(255,127,80);"/>
        <path d="M194.091,235.87C186.805,228.585 174.993,228.585 167.708,235.87C133.112,270.465 40.06,363.518 5.464,398.113C1.966,401.612 -0,406.358 -0,411.305C-0,416.253 1.966,420.998 5.464,424.496C9.356,428.388 13.614,432.646 17.506,436.538C24.791,443.823 36.603,443.823 43.888,436.538C78.484,401.943 171.536,308.89 206.132,274.295C213.417,267.009 213.417,255.197 206.132,247.912C202.24,244.02 197.982,239.762 194.091,235.87Z" style="fill:rgb(255,127,80);"/>
        <path d="M155.666,87.504C148.381,94.789 148.381,106.601 155.666,113.887C190.261,148.482 283.314,241.535 317.909,276.13C321.408,279.628 326.154,281.594 331.101,281.594C336.049,281.594 340.794,279.628 344.293,276.13C348.184,272.238 352.442,267.98 356.334,264.088C363.619,256.803 363.619,244.991 356.334,237.705C321.739,203.11 228.686,110.057 194.091,75.462C186.805,68.177 174.993,68.177 167.708,75.462C163.816,79.354 159.558,83.612 155.666,87.504Z" style="fill:rgb(255,127,80);"/>
        <path d="M155.666,247.912C148.381,255.197 148.381,267.009 155.666,274.295C190.261,308.89 283.314,401.943 317.909,436.538C321.408,440.036 326.154,442.002 331.101,442.002C336.049,442.002 340.794,440.036 344.293,436.538C348.184,432.646 352.442,428.388 356.334,424.496C363.619,417.211 363.619,405.399 356.334,398.113C321.739,363.518 228.686,270.465 194.091,235.87C186.805,228.585 174.993,228.585 167.708,235.87C163.816,239.762 159.558,244.02 155.666,247.912Z" style="fill:rgb(255,127,80);"/>
    </g>
</svg>
