<?xml version="1.0" encoding="UTF-8" standalone="no"?>
<!DOCTYPE svg PUBLIC "-//W3C//DTD SVG 1.1//EN" "http://www.w3.org/Graphics/SVG/1.1/DTD/svg11.dtd">
<svg width="100%" height="100%" viewBox="0 0 69 68" version="1.1" xmlns="http://www.w3.org/2000/svg" xmlns:xlink="http://www.w3.org/1999/xlink" xml:space="preserve" xmlns:serif="http://www.serif.com/" style="fill-rule:evenodd;clip-rule:evenodd;stroke-linejoin:round;stroke-miterlimit:2;">
    <path id="logo-black" d="M35.483,66.762L34.01,67.623L0,47.987L0,41.209L34.01,60.845L62.164,44.585L62.164,39.418L34.019,55.652L0,36.007L0,9.946C5.117,6.909 10.564,4.464 16.234,2.66L16.234,26.654L34.019,36.92L51.803,26.654L51.803,2.652C57.474,4.459 62.921,6.906 68.038,9.946L68.038,24.036L62.164,27.43L62.164,13.469L57.677,11.256L57.677,30.022L34.019,43.681L10.361,30.022L10.361,11.238L5.874,13.46L5.874,32.631L34.019,48.883L68.029,29.247L68.029,47.979L35.483,66.762ZM47.282,11.264L41.408,11.264L41.408,6.415C36.481,5.753 31.488,5.753 26.561,6.415L26.561,20.66L33.985,24.966L41.408,20.66L41.408,17.138L47.282,17.138L47.282,24.028L33.985,31.701L20.687,24.028L20.687,1.463C29.445,-0.488 38.524,-0.488 47.282,1.463L47.282,11.281L47.282,11.264Z" style="fill-rule:nonzero;"/>
</svg>
