<?xml version="1.0" encoding="UTF-8"?>
<!DOCTYPE svg PUBLIC "-//W3C//DTD SVG 1.1//EN" "http://www.w3.org/Graphics/SVG/1.1/DTD/svg11.dtd">
<svg version="1.1" xmlns="http://www.w3.org/2000/svg" xmlns:xlink="http://www.w3.org/1999/xlink" x="0" y="0" width="242.826" height="261.861" viewBox="0, 0, 242.826, 261.861">
  <g id="Literally_1984_Copy_Copy_Copy_Copy_Copy" transform="translate(-579.922, -369.069)">
    <path d="M655.729,369.069 C709.237,392.76 762.776,416.382 816.318,439.994 C816.534,440.209 815.457,440.317 742.409,436.764 C716.463,435.472 707.311,435.58 701.767,437.356 C696.384,439.025 689.009,443.062 684.864,446.507 C681.311,449.522 599.894,539.994 599.894,539.994 C599.894,539.994 580.179,530.488 580.179,530.488 L580.179,369.069 L655.729,369.069 z" fill="#000000"/>
    <path d="M579.922,535.993 L602.622,547.248 L620.003,547.217 C620.003,547.217 620.042,579.137 620.003,579.214 C582.115,560.231 581.018,559.675 579.922,559.118 L579.922,535.993 z" fill="#000000"/>
    <path d="M746.262,441.943 C746.262,441.943 773.277,501.358 773.277,501.358 C773.277,501.358 822.747,445.589 822.747,445.589 C822.747,445.589 746.262,441.943 746.262,441.943 z" fill="#000000"/>
    <path d="M623.192,523.217 L650.592,541.454 L605.723,541.454 L623.192,523.217 z" fill="#000000"/>
    <path d="M592.77,571.922 L620.003,585.714 L620.003,592.512 L579.922,592.377 L579.922,584.178 C582.758,583.191 585.198,581.423 587.331,579.342 C588.73,577.944 590.517,575.69 591.255,574.37 C591.993,573.049 592.692,571.922 592.77,571.922 z" fill="#000000"/>
    <path d="M620.003,597.832 L619.809,630.93 C619.809,630.93 579.922,630.93 579.922,630.93 L579.922,616.439 L599.996,608.088 C600.151,600.901 600.268,598.57 600.384,598.298 L620.003,597.832 z" fill="#000000"/>
    <path d="M696.647,536.737 C696.651,559.44 696.649,542.746 696.645,557.287 C696.642,571.203 696.636,581.804 696.63,589.899 C696.61,616.011 696.591,616.053 696.647,617.164 C696.647,623.396 691.595,628.448 685.362,628.448 C679.13,628.448 674.078,623.396 674.078,617.164 L674.078,536.737 L696.647,536.737 z M694.185,617.163 L692.359,617.163 C692.165,620.999 689.495,623.8 685.601,623.92 L685.367,623.908 L685.367,625.984 C690.372,625.731 694.028,622.244 694.185,617.163 z" fill="#000000"/>
    <path d="M717.113,534.097 C717.126,617.72 717.046,610.613 717.113,611.938 C717.113,616.49 713.423,620.18 708.871,620.18 C704.32,620.18 700.63,616.49 700.63,611.938 L700.63,534.097 L717.113,534.097 z M715.061,611.94 L713.782,611.94 C713.646,614.627 711.776,616.59 709.048,616.674 L708.884,616.666 L708.884,618.12 C712.39,617.943 714.951,615.5 715.061,611.94 z" fill="#000000"/>
    <path d="M671.259,522.224 C671.271,592.035 671.204,591.402 671.259,592.508 C671.259,596.308 668.179,599.388 664.379,599.388 C660.58,599.388 657.499,596.308 657.499,592.508 L657.499,522.224 L671.259,522.224 z M669.426,592.5 L668.383,592.5 C668.273,594.689 666.749,596.289 664.526,596.357 L664.392,596.35 L664.392,597.535 C667.249,597.391 669.336,595.401 669.426,592.5 z" fill="#000000"/>
    <path d="M752.424,512.831 C754.515,512.934 756.509,513.578 758.495,514.178 C739.461,528.009 716.536,542.393 692.238,542.784 C674.708,542.497 663.194,534.131 652.383,521.17 C654.668,520.467 657.024,520.057 659.373,519.646 C663.245,519.048 667.268,518.611 671.129,519.517 C678.806,521.481 679.701,531.122 687.021,531.836 C688.576,531.986 690.136,531.747 691.614,531.257 C692.007,531.127 692.385,530.956 692.77,530.805 C693.903,531.245 695.109,531.458 696.309,531.603 C702.776,532.25 709.006,530.31 709.006,530.31 C707.219,528.857 705.592,527.223 704.028,525.536 C705.015,525.174 704.459,525.364 705.702,524.988 C707.233,526.639 708.864,528.207 710.64,529.595 C714.066,528.182 717.303,526.35 720.356,524.256 C722.316,524.641 724.168,525.392 726.033,526.079 C728.525,526.996 730.458,527.713 733.083,527.039 C739.153,525.254 741.831,516.125 748.794,513.269 C750.079,512.797 751.089,512.837 752.424,512.831 z" fill="#000000"/>
    <path d="M718.233,465.212 C753.276,465.212 768.435,506.199 768.435,506.199 C766.5,507.897 764.495,509.512 762.48,511.112 C758.894,509.554 755.129,508.216 751.192,508.045 C750.378,508.112 749.554,508.156 748.794,508.49 C741.831,511.346 739.153,520.475 733.083,522.26 C730.161,523.137 727.357,521.795 724.657,520.785 C728.033,517.393 731.142,513.614 733.412,509.375 C733.412,509.375 722.656,514.787 715.439,515.774 C708.321,516.748 699.747,516.455 699.747,516.455 C700.595,518.134 701.586,519.738 702.674,521.271 C701.223,521.888 701.74,521.642 701.098,521.952 C700.261,520.819 700.693,521.435 699.815,520.098 C696.206,514.345 695.355,505.835 695.355,505.835 C695.355,505.835 691.339,512.03 689.398,515.877 C687.458,519.723 685.28,526.089 685.28,526.089 C685.556,526.379 685.855,526.647 686.155,526.912 C678.991,524.9 678.732,516.976 671.129,514.738 C667.046,513.816 662.787,514.371 658.71,515.031 C655.576,515.537 652.48,516.312 649.426,517.169 C646.362,512.645 643.512,507.904 641.44,502.832 C641.44,502.832 683.19,465.212 718.233,465.212 L718.233,465.212 z M704.274,493.342 C704.274,493.342 699.406,493.784 693.177,495.997 C686.948,498.21 683.714,500.014 683.714,500.014 C683.714,500.014 681.416,504.269 680.659,511.145 C679.901,518.021 684.429,524.931 684.429,524.931 C684.429,524.931 686.403,518.259 692.088,508.558 C697.772,498.856 704.274,493.342 704.274,493.342 z M733.617,482.926 L731.574,488.202 C727.932,496.337 725.413,500.831 720.273,507.23 L713.159,514.583 C726.389,511.649 726.538,511.04 731.064,509.034 C734.059,507.707 734.672,507.435 735.591,504.609 C737.419,498.989 738.518,490.959 735.455,485.479 L733.617,482.926 z M718.434,475.851 C717.683,475.889 716.93,475.9 716.18,475.966 C713.743,476.18 711.327,476.711 709.006,477.479 C709.006,477.479 715.065,482.211 718.026,487.998 C720.988,493.784 722.588,502.226 722.588,502.226 C722.588,502.226 724.834,499.333 727.592,493.648 C730.349,487.964 732.596,481.666 732.596,481.666 C732.596,481.666 728.17,477.173 721.941,476.118 C719.997,475.854 721.163,475.977 718.434,475.851 z M706.929,478.194 C706.929,478.194 701.108,480.236 695.287,484.798 C689.466,489.359 684.497,498.414 684.497,498.414 C684.497,498.414 693.79,493.75 701.653,492.151 C709.516,490.551 718.265,491.504 718.265,491.504 C718.265,491.504 716.494,487.283 712.954,483.402 C709.414,479.522 706.976,478.194 706.929,478.194 z" fill="#000000"/>
    <path d="M752.424,512.831 C754.515,512.934 756.509,513.578 758.495,514.178 C739.461,528.009 716.536,542.393 692.238,542.784 C674.707,542.497 663.194,534.132 652.383,521.17 C654.668,520.467 657.024,520.057 659.373,519.646 C663.245,519.048 667.268,518.611 671.129,519.517 C678.806,521.481 679.701,531.122 687.021,531.836 C694.341,532.55 699.518,524.873 711.837,523.802 C724.156,522.731 727.334,528.73 733.083,527.039 C739.153,525.254 741.831,516.125 748.794,513.269 C750.079,512.797 751.089,512.837 752.424,512.831 z" fill="#000000"/>
  </g>
</svg>
