<?xml version="1.0" encoding="UTF-8" standalone="no"?>
<!DOCTYPE svg PUBLIC "-//W3C//DTD SVG 1.1//EN" "http://www.w3.org/Graphics/SVG/1.1/DTD/svg11.dtd">
<svg width="100%" height="100%" viewBox="0 0 1000 1000" version="1.1" xmlns="http://www.w3.org/2000/svg" xmlns:xlink="http://www.w3.org/1999/xlink" xml:space="preserve" xmlns:serif="http://www.serif.com/" style="fill-rule:evenodd;clip-rule:evenodd;stroke-linejoin:round;stroke-miterlimit:2;">
    <g>
        <path d="M375.589,809.16L452.806,855.029C484.549,873.886 524.059,873.886 555.801,855.029L633.018,809.16L671.411,831.967C683.545,839.175 690.983,852.243 690.983,866.357C690.983,880.47 683.545,893.539 671.411,900.746C631.876,924.232 580.461,954.774 545.161,975.744C519.977,990.704 488.63,990.704 463.446,975.744C428.146,954.774 376.731,924.232 337.196,900.746C325.062,893.539 317.624,880.47 317.624,866.357C317.624,852.243 325.062,839.175 337.196,831.967L375.589,809.16ZM395.985,797.044L463.446,756.97C488.63,742.009 519.977,742.009 545.161,756.97L612.622,797.044L545.161,837.118C519.977,852.078 488.63,852.078 463.446,837.118L395.985,797.044Z"/>
        <path d="M705.591,624.54L746.411,648.788C758.545,655.996 765.983,669.065 765.983,683.178C765.983,697.292 758.545,710.36 746.411,717.568C687.338,752.66 597.169,806.224 545.161,837.118C519.977,852.078 488.63,852.078 463.446,837.118C411.438,806.224 321.269,752.66 262.196,717.568C250.062,710.36 242.624,697.292 242.624,683.178C242.624,669.065 250.062,655.996 262.196,648.788L298.162,627.423L447.952,716.404C479.694,735.26 519.204,735.26 550.947,716.404L705.591,624.54ZM318.558,615.307L463.446,529.239C488.63,514.278 519.977,514.278 545.161,529.239L685.195,612.424L540.307,698.492C515.122,713.453 483.776,713.453 458.592,698.492L318.558,615.307Z"/>
        <path d="M298.162,396.809L452.806,488.673C484.549,507.529 524.059,507.529 555.801,488.673L705.591,399.692L816.557,465.61C828.691,472.818 836.128,485.887 836.128,500C836.128,514.113 828.691,527.182 816.557,534.39C740.04,579.843 607.14,658.791 540.307,698.492C515.122,713.453 483.776,713.453 458.592,698.492C391.758,658.791 258.858,579.843 182.341,534.39C170.207,527.182 162.77,514.113 162.77,500C162.77,485.887 170.207,472.818 182.341,465.61L298.162,396.809ZM318.558,384.693L458.592,301.508C483.776,286.547 515.122,286.547 540.307,301.508L685.195,387.576L545.161,470.761C519.977,485.722 488.63,485.722 463.446,470.761L318.558,384.693Z"/>
        <path d="M463.446,24.256C488.63,9.296 519.977,9.296 545.161,24.256C580.461,45.226 631.876,75.768 671.411,99.254C683.545,106.461 690.983,119.53 690.983,133.643C690.983,147.757 683.545,160.825 671.411,168.033C631.876,191.519 580.461,222.061 545.161,243.03C519.977,257.991 488.63,257.991 463.446,243.03C428.146,222.061 376.731,191.519 337.196,168.033C325.062,160.825 317.624,147.757 317.624,133.643C317.624,119.53 325.062,106.461 337.196,99.254C376.731,75.768 428.146,45.226 463.446,24.256Z"/>
        <path d="M633.018,215.072L746.411,282.432C758.545,289.64 765.983,302.708 765.983,316.822C765.983,330.935 758.545,344.004 746.411,351.212C687.338,386.303 597.169,439.867 545.161,470.761C519.977,485.722 488.63,485.722 463.446,470.761C411.438,439.867 321.269,386.303 262.196,351.212C250.062,344.004 242.624,330.935 242.624,316.822C242.624,302.708 250.062,289.64 262.196,282.432L375.589,215.072L452.806,260.942C484.549,279.798 524.058,279.798 555.801,260.942L633.018,215.072ZM395.985,202.956L463.446,162.882C488.63,147.922 519.977,147.922 545.161,162.882L612.622,202.956L545.161,243.03C519.977,257.991 488.63,257.991 463.446,243.03L395.985,202.956Z"/>
    </g>
</svg>
