<?xml version="1.0" encoding="UTF-8" standalone="no"?>
<!DOCTYPE svg PUBLIC "-//W3C//DTD SVG 1.1//EN" "http://www.w3.org/Graphics/SVG/1.1/DTD/svg11.dtd">
<svg width="100%" height="100%" viewBox="0 0 512 512" version="1.1" xmlns="http://www.w3.org/2000/svg" xmlns:xlink="http://www.w3.org/1999/xlink" xml:space="preserve" xmlns:serif="http://www.serif.com/" style="fill-rule:evenodd;clip-rule:evenodd;stroke-linejoin:round;stroke-miterlimit:2;">
    <g>
        <path d="M339.955,427.668L494.227,273.396C501.155,266.468 501.155,255.236 494.227,248.309C490.527,244.609 486.477,240.56 482.777,236.859C475.85,229.932 464.618,229.932 457.691,236.859L327.411,367.138L197.132,236.859C193.722,233.45 189.27,231.718 184.801,231.665L184.589,231.664C180.049,231.664 175.509,233.396 172.045,236.859C139.15,269.755 50.669,358.236 17.773,391.131C14.446,394.458 12.577,398.97 12.577,403.675C12.577,408.38 14.446,412.891 17.773,416.218C21.474,419.919 25.523,423.968 29.223,427.668C36.15,434.595 47.382,434.595 54.309,427.668L184.589,297.389L314.868,427.668C314.92,427.72 314.973,427.773 315.027,427.825L315.031,427.829L315.156,427.95L315.184,427.976C318.32,430.962 322.28,432.58 326.31,432.829L326.348,432.832L326.511,432.84L326.561,432.843L326.714,432.849L326.751,432.851L326.773,432.852L326.92,432.856L326.971,432.858L326.986,432.858L327.135,432.861L327.191,432.862L327.199,432.862L327.411,432.863C327.484,432.863 327.556,432.863 327.629,432.862L327.837,432.858L327.852,432.858L327.894,432.857L328.05,432.852L328.072,432.851L328.101,432.85L328.262,432.843L328.304,432.841C332.406,432.636 336.45,431.014 339.639,427.976L339.792,427.829L339.796,427.824C339.849,427.773 339.902,427.72 339.955,427.668ZM327.411,214.611L197.132,84.332C190.204,77.405 178.973,77.405 172.045,84.332C168.345,88.032 164.296,92.081 160.596,95.782C153.668,102.709 153.668,113.941 160.596,120.869C193.491,153.764 281.972,242.245 314.868,275.141C314.92,275.193 314.973,275.246 315.027,275.298L315.031,275.302L315.156,275.423L315.184,275.449C318.32,278.435 322.28,280.053 326.31,280.302L326.348,280.305L326.511,280.313L326.561,280.316L326.714,280.322L326.751,280.324L326.773,280.325L326.92,280.329L326.971,280.331L326.986,280.331L327.135,280.334L327.191,280.335L327.199,280.335L327.411,280.336C327.484,280.336 327.556,280.336 327.629,280.335L327.837,280.331L327.852,280.331L327.894,280.329L328.05,280.325L328.072,280.324L328.101,280.323L328.262,280.316L328.304,280.314C332.406,280.109 336.45,278.487 339.639,275.448L339.792,275.302L339.796,275.297C339.849,275.246 339.902,275.193 339.955,275.141L494.227,120.869C501.155,113.941 501.155,102.709 494.227,95.782C490.527,92.081 486.477,88.032 482.777,84.332C475.85,77.405 464.618,77.405 457.691,84.332L327.411,214.611Z" style="stroke:rgb(255,127,80);stroke-width:8.33px;"/>
    </g>
</svg>
