<?xml version="1.0" encoding="UTF-8" standalone="no"?>
<!DOCTYPE svg PUBLIC "-//W3C//DTD SVG 1.1//EN" "http://www.w3.org/Graphics/SVG/1.1/DTD/svg11.dtd">
<svg width="100%" height="100%" viewBox="0 0 512 512" version="1.1" xmlns="http://www.w3.org/2000/svg" xmlns:xlink="http://www.w3.org/1999/xlink" xml:space="preserve" xmlns:serif="http://www.serif.com/" style="fill-rule:evenodd;clip-rule:evenodd;stroke-linejoin:round;stroke-miterlimit:2;">
    <rect x="-15.045" y="-15.045" width="542.091" height="542.091" style="fill:rgb(38,38,38);"/>
    <g>
        <path d="M430.95,123.564C425.606,118.22 416.941,118.22 411.597,123.564C386.219,148.942 317.959,217.202 292.581,242.58C290.015,245.146 288.573,248.627 288.573,252.257C288.573,255.886 290.015,259.367 292.581,261.933C295.436,264.788 298.56,267.912 301.414,270.766C306.759,276.111 315.424,276.111 320.768,270.766C346.146,245.389 414.406,177.129 439.783,151.751C445.128,146.407 445.128,137.742 439.783,132.398C436.929,129.543 433.805,126.419 430.95,123.564Z" style="fill:white;"/>
        <path d="M430.95,241.234C425.606,235.889 416.941,235.889 411.597,241.234C386.219,266.611 317.959,334.871 292.581,360.249C290.015,362.815 288.573,366.296 288.573,369.926C288.573,373.555 290.015,377.036 292.581,379.602C295.436,382.457 298.56,385.581 301.414,388.436C306.759,393.78 315.424,393.78 320.768,388.436C346.146,363.058 414.406,294.798 439.783,269.42C445.128,264.076 445.128,255.411 439.783,250.067C436.929,247.212 433.805,244.088 430.95,241.234Z" style="fill:white;"/>
        <path d="M210.586,241.234C205.241,235.889 196.576,235.889 191.232,241.234C165.854,266.611 97.595,334.871 72.217,360.249C69.65,362.815 68.208,366.296 68.208,369.926C68.208,373.555 69.65,377.036 72.217,379.602C75.071,382.457 78.195,385.581 81.05,388.436C86.394,393.78 95.059,393.78 100.403,388.436C125.781,363.058 194.041,294.798 219.419,269.42C224.763,264.076 224.763,255.411 219.419,250.067C216.564,247.212 213.44,244.088 210.586,241.234Z" style="fill:white;"/>
        <path d="M182.399,132.398C177.055,137.742 177.055,146.407 182.399,151.751C207.777,177.129 276.037,245.389 301.414,270.766C303.981,273.333 307.462,274.775 311.091,274.775C314.721,274.775 318.201,273.333 320.768,270.766C323.623,267.912 326.746,264.788 329.601,261.933C334.945,256.589 334.945,247.924 329.601,242.58C304.223,217.202 235.963,148.942 210.586,123.564C205.241,118.22 196.576,118.22 191.232,123.564C188.377,126.419 185.254,129.543 182.399,132.398Z" style="fill:white;"/>
        <path d="M182.399,250.067C177.055,255.411 177.055,264.076 182.399,269.42C207.777,294.798 276.037,363.058 301.414,388.436C303.981,391.002 307.462,392.444 311.091,392.444C314.721,392.444 318.201,391.002 320.768,388.436C323.623,385.581 326.746,382.457 329.601,379.602C334.945,374.258 334.945,365.593 329.601,360.249C304.223,334.871 235.963,266.611 210.586,241.234C205.241,235.889 196.576,235.889 191.232,241.234C188.377,244.088 185.254,247.212 182.399,250.067Z" style="fill:white;"/>
    </g>
</svg>
