<?xml version="1.0" encoding="UTF-8" standalone="no"?>
<!DOCTYPE svg PUBLIC "-//W3C//DTD SVG 1.1//EN" "http://www.w3.org/Graphics/SVG/1.1/DTD/svg11.dtd">
<svg width="100%" height="100%" viewBox="0 0 100 100" version="1.1" xmlns="http://www.w3.org/2000/svg" xmlns:xlink="http://www.w3.org/1999/xlink" xml:space="preserve" xmlns:serif="http://www.serif.com/" style="fill-rule:evenodd;clip-rule:evenodd;stroke-linejoin:round;stroke-miterlimit:2;">
    <path d="M36.777,99.83C30.061,99.83 24.376,99.528 19.721,98.924C15.066,98.32 11.175,96.774 8.048,94.287C4.992,91.87 2.887,88.752 1.732,84.933C0.577,81.113 0,76.378 0,70.728L0,30.541C0,24.358 0.56,19.25 1.679,15.217C2.798,11.184 4.886,7.959 7.942,5.543C10.997,3.162 14.853,1.643 19.508,0.986C24.162,0.329 29.883,0 36.67,0L63.16,0C69.947,0 75.668,0.329 80.322,0.986C84.977,1.643 88.832,3.162 91.888,5.543C94.731,7.817 96.765,10.917 97.991,14.844C99.217,18.77 99.83,23.683 99.83,29.581L99.83,70.249C99.83,76.147 99.235,81.042 98.044,84.933C96.854,88.824 94.802,91.942 91.888,94.287C88.832,96.774 84.977,98.32 80.322,98.924C75.668,99.528 69.947,99.83 63.16,99.83L36.777,99.83ZM20.029,25.571L28.174,25.571L49.946,47.343L71.748,25.571L79.801,25.571L55.09,49.915L79.801,74.259L71.748,74.259L49.946,52.487L28.174,74.259L20.029,74.259L44.679,49.915L20.029,25.571Z"/>
</svg>
