<?xml version="1.0" encoding="UTF-8" standalone="no"?>
<!DOCTYPE svg PUBLIC "-//W3C//DTD SVG 1.1//EN" "http://www.w3.org/Graphics/SVG/1.1/DTD/svg11.dtd">
<svg width="100%" height="100%" viewBox="0 0 1000 1000" version="1.1" xmlns="http://www.w3.org/2000/svg" xmlns:xlink="http://www.w3.org/1999/xlink" xml:space="preserve" xmlns:serif="http://www.serif.com/" style="fill-rule:evenodd;clip-rule:evenodd;stroke-linejoin:round;stroke-miterlimit:2;">
    <path d="M867.591,232.83C853.923,219.162 831.762,219.162 818.094,232.83C755.947,294.976 593.862,457.062 531.715,519.208C518.047,532.876 518.047,555.037 531.716,568.706C535.823,572.813 540.083,577.073 544.19,581.18C557.858,594.848 580.019,594.848 593.687,581.18C655.834,519.034 817.919,356.948 880.066,294.802C893.734,281.133 893.734,258.973 880.066,245.304C875.958,241.197 871.699,236.937 867.591,232.83Z"/>
    <path d="M835.939,523.194C829.375,516.63 820.473,512.943 811.191,512.943C801.908,512.943 793.006,516.63 786.442,523.194C729.325,580.311 588.833,720.803 531.715,777.92C525.152,784.484 521.464,793.387 521.464,802.669C521.464,811.952 525.152,820.854 531.716,827.418C535.823,831.525 540.083,835.785 544.19,839.892C550.754,846.456 559.656,850.144 568.939,850.144C578.221,850.144 587.124,846.456 593.687,839.892C650.805,782.775 791.297,642.283 848.414,585.166C854.978,578.602 858.665,569.7 858.665,560.417C858.665,551.135 854.978,542.232 848.414,535.669C844.306,531.561 840.047,527.302 835.939,523.194Z"/>
    <path d="M351.436,523.194C344.872,516.63 335.97,512.943 326.687,512.943C317.404,512.943 308.502,516.63 301.938,523.194C244.821,580.311 104.329,720.803 47.212,777.92C40.648,784.484 36.961,793.387 36.961,802.669C36.961,811.952 40.648,820.854 47.212,827.418C51.319,831.525 55.579,835.785 59.686,839.892C66.25,846.456 75.153,850.144 84.435,850.144C93.718,850.144 102.62,846.456 109.184,839.892C166.301,782.775 306.793,642.283 363.91,585.166C370.474,578.602 374.161,569.7 374.161,560.417C374.161,551.135 370.474,542.232 363.91,535.669C359.803,531.561 355.543,527.302 351.436,523.194Z"/>
    <path d="M257.812,245.304C244.143,258.973 244.143,281.133 257.812,294.802C319.958,356.948 482.044,519.034 544.19,581.18C557.858,594.848 580.019,594.848 593.687,581.18C597.795,577.073 602.055,572.813 606.162,568.706C619.83,555.037 619.83,532.876 606.162,519.208C544.016,457.062 381.93,294.976 319.784,232.83C306.115,219.162 283.955,219.162 270.286,232.83C266.179,236.937 261.919,241.197 257.812,245.304Z"/>
    <path d="M289.464,535.669C282.9,542.232 279.212,551.135 279.212,560.417C279.212,569.7 282.9,578.602 289.464,585.166C346.581,642.283 487.073,782.775 544.19,839.892C550.754,846.456 559.656,850.144 568.939,850.144C578.221,850.144 587.124,846.456 593.687,839.892C597.795,835.785 602.055,831.525 606.162,827.418C612.726,820.854 616.413,811.952 616.413,802.669C616.413,793.387 612.726,784.484 606.162,777.92C549.045,720.803 408.553,580.311 351.436,523.194C344.872,516.63 335.97,512.943 326.687,512.943C317.404,512.943 308.502,516.63 301.938,523.194C297.831,527.302 293.571,531.561 289.464,535.669Z"/>
</svg>
