<?xml version="1.0" encoding="UTF-8" standalone="no"?>
<!DOCTYPE svg PUBLIC "-//W3C//DTD SVG 1.1//EN" "http://www.w3.org/Graphics/SVG/1.1/DTD/svg11.dtd">
<svg width="100%" height="100%" viewBox="0 0 1000 1000" version="1.1" xmlns="http://www.w3.org/2000/svg" xmlns:xlink="http://www.w3.org/1999/xlink" xml:space="preserve" xmlns:serif="http://www.serif.com/" style="fill-rule:evenodd;clip-rule:evenodd;stroke-linejoin:round;stroke-miterlimit:2;">
    <path d="M947.446,161.288C933.778,147.62 911.617,147.62 897.949,161.288C833.043,226.193 658.465,400.772 593.559,465.677C586.995,472.241 583.308,481.144 583.308,490.426C583.308,499.709 586.995,508.611 593.559,515.175C600.86,522.476 608.849,530.465 616.15,537.766C629.819,551.434 651.98,551.434 665.648,537.766C730.553,472.861 905.132,298.282 970.037,233.377C983.706,219.708 983.706,197.547 970.037,183.879C962.736,176.578 954.747,168.589 947.446,161.288Z"/>
    <path d="M947.446,462.234C933.778,448.566 911.617,448.566 897.949,462.234C833.043,527.139 658.465,701.718 593.559,766.623C586.995,773.187 583.308,782.09 583.308,791.372C583.308,800.655 586.995,809.557 593.559,816.121C600.86,823.422 608.849,831.411 616.15,838.712C629.819,852.38 651.98,852.38 665.648,838.712C730.553,773.807 905.132,599.228 970.037,534.323C983.706,520.654 983.706,498.493 970.037,484.825C962.736,477.524 954.747,469.535 947.446,462.234Z"/>
    <path d="M383.85,462.234C370.181,448.566 348.02,448.566 334.352,462.234C269.447,527.139 94.868,701.718 29.963,766.623C23.399,773.187 19.711,782.09 19.711,791.372C19.711,800.655 23.399,809.557 29.963,816.121C37.264,823.422 45.253,831.411 52.554,838.712C66.222,852.38 88.383,852.38 102.051,838.712C166.957,773.807 341.535,599.228 406.441,534.323C420.109,520.654 420.109,498.493 406.441,484.825C399.14,477.524 391.151,469.535 383.85,462.234Z"/>
    <path d="M311.761,183.879C298.093,197.547 298.093,219.708 311.761,233.377C376.666,298.282 551.245,472.861 616.15,537.766C622.714,544.33 631.617,548.017 640.899,548.017C650.182,548.017 659.084,544.33 665.648,537.766C672.949,530.465 680.938,522.476 688.239,515.175C701.907,501.507 701.907,479.346 688.239,465.677C623.334,400.772 448.755,226.193 383.85,161.288C370.181,147.62 348.02,147.62 334.352,161.288C327.051,168.589 319.062,176.578 311.761,183.879Z"/>
    <path d="M311.761,484.825C298.093,498.493 298.093,520.654 311.761,534.323C376.666,599.228 551.245,773.807 616.15,838.712C622.714,845.276 631.617,848.963 640.899,848.963C650.182,848.963 659.084,845.276 665.648,838.712C672.949,831.411 680.938,823.422 688.239,816.121C701.907,802.453 701.907,780.292 688.239,766.623C623.334,701.718 448.755,527.139 383.85,462.234C370.181,448.566 348.02,448.566 334.352,462.234C327.051,469.535 319.062,477.524 311.761,484.825Z"/>
</svg>
