<?xml version="1.0" encoding="UTF-8" standalone="no"?>
<!DOCTYPE svg PUBLIC "-//W3C//DTD SVG 1.1//EN" "http://www.w3.org/Graphics/SVG/1.1/DTD/svg11.dtd">
<svg width="100%" height="100%" viewBox="0 0 1000 1000" version="1.1" xmlns="http://www.w3.org/2000/svg" xmlns:xlink="http://www.w3.org/1999/xlink" xml:space="preserve" xmlns:serif="http://www.serif.com/" style="fill-rule:evenodd;clip-rule:evenodd;stroke-linejoin:round;stroke-miterlimit:2;">
    <path d="M1000,-0L-0,-0L-0,1000L1000,1000L1000,-0ZM524.175,483.618C515.352,484.516 508.403,490.099 505.944,498.239C504.324,503.607 504.246,511.141 505.749,516.314C507.31,521.741 510.004,525.098 515.157,528.026C519.588,530.564 525.717,531.715 531.124,531.052C537.039,530.31 540.982,528.533 544.476,524.981C546.916,522.521 548.595,519.789 549.141,517.388L549.317,516.587L537.058,516.587L536.375,517.641C535.145,519.574 533.213,520.843 530.656,521.389C525.464,522.482 519.998,520.277 518.066,516.314C517.402,514.967 516.758,512.527 516.758,511.376L516.758,510.536L550,510.536L549.883,506.769C549.688,500.308 548.692,496.54 546.135,492.676C542.485,487.171 537.39,484.302 529.934,483.599C527.513,483.384 526.557,483.384 524.175,483.618ZM450,468.764L450,529.685L466.455,529.607C483.769,529.529 484.082,529.509 487.712,528.592C489.606,528.104 492.67,526.523 494.212,525.235C497.297,522.638 499.424,519.047 500.264,515.026C500.634,513.288 500.673,509.736 500.342,507.881C499.522,503.119 496.691,499.508 492.221,497.477L491.187,497.009L492.514,496.228C494.349,495.116 496.438,492.988 497.199,491.407C499.131,487.444 499.112,481.51 497.14,477.45C494.837,472.668 489.918,469.72 483.028,468.979C481.739,468.842 475.512,468.764 465.518,468.764L450,468.764ZM482.149,503.353C483.906,503.88 484.882,504.466 485.897,505.578C487.224,507.023 487.576,508.116 487.556,510.731C487.498,515.592 485.155,518.227 480.314,518.93C479.573,519.027 475.239,519.125 470.652,519.125L462.297,519.125L462.297,502.904L471.726,502.982C479.612,503.041 481.31,503.099 482.149,503.353ZM529.856,493.437C532.627,494.042 535.204,495.896 536.278,498.122C536.902,499.41 537.449,501.303 537.449,502.182L537.449,502.728L516.953,502.728L517.07,502.182C517.402,500.64 518.027,498.844 518.554,497.887C519.354,496.482 520.935,494.881 522.145,494.276C524.156,493.261 527.357,492.91 529.856,493.437ZM481.037,479.773C483.164,480.222 484.511,480.964 485.272,482.096C486.092,483.306 486.307,484.126 486.307,485.961C486.307,488.85 485.233,490.665 482.969,491.7C480.802,492.676 479.592,492.773 470.574,492.773L462.297,492.773L462.297,479.265L470.945,479.363C477.874,479.441 479.865,479.519 481.037,479.773ZM513.83,471.692L513.83,479.109L540.377,479.109L540.377,471.692L513.83,471.692Z"/>
</svg>
