<?xml version="1.0" encoding="UTF-8" standalone="no"?>
<!DOCTYPE svg PUBLIC "-//W3C//DTD SVG 1.1//EN" "http://www.w3.org/Graphics/SVG/1.1/DTD/svg11.dtd">
<svg width="100%" height="100%" viewBox="0 0 1000 1000" version="1.1" xmlns="http://www.w3.org/2000/svg" xmlns:xlink="http://www.w3.org/1999/xlink" xml:space="preserve" xmlns:serif="http://www.serif.com/" style="fill-rule:evenodd;clip-rule:evenodd;stroke-linejoin:round;stroke-miterlimit:2;">
    <path d="M1000,-0L-0,-0L-0,1000L1000,1000L1000,-0ZM472.565,504.158C475.277,503.433 478.348,504.934 479.468,507.5C480.095,508.808 479.975,510.289 480.057,511.694C480.456,519.443 484.336,526.896 490.375,531.745C494.955,535.474 500.741,537.699 506.644,537.952C507.486,537.99 508.337,537.974 509.173,538.111C511.673,538.56 513.743,540.782 513.968,543.32C514.297,545.818 512.826,548.394 510.537,549.429C508.929,550.22 507.09,549.983 505.365,549.907C495.788,549.318 486.488,545.109 479.74,538.285C473.065,531.695 468.877,522.662 468.134,513.312C468.045,511.928 467.903,510.533 468.064,509.15C468.343,506.769 470.232,504.693 472.565,504.158ZM542.233,486.24C543.816,485.765 545.601,485.939 547.025,486.797C548.867,487.845 550.048,489.928 550.016,492.048C550.01,499.17 548.073,506.288 544.414,512.403C540.033,519.794 533.212,525.716 525.258,528.976C520.374,530.995 515.079,532.027 509.793,531.98C507.084,531.948 504.59,529.821 504.118,527.153C503.523,524.428 505.141,521.433 507.739,520.427C508.891,519.933 510.167,520.003 511.392,519.943C517.383,519.696 523.248,517.401 527.85,513.565C533.092,509.27 536.662,502.99 537.678,496.293C537.966,494.672 537.963,493.026 538.058,491.393C538.223,489.035 539.986,486.914 542.233,486.24ZM485.267,468.253C487.21,468.079 489.185,467.816 491.132,468.091C493.581,468.503 495.617,470.633 495.936,473.095C496.379,475.748 494.768,478.568 492.265,479.54C491.008,480.074 489.619,479.951 488.289,480.036C480.544,480.435 473.087,484.316 468.241,490.355C464.513,494.935 462.284,500.721 462.034,506.627C461.996,507.469 462.012,508.317 461.876,509.153C461.427,511.653 459.205,513.723 456.663,513.948C454.166,514.274 451.593,512.805 450.561,510.517C449.855,509.115 449.963,507.504 450.039,505.984C450.361,499.588 452.216,493.26 455.483,487.747C458.41,482.74 462.462,478.41 467.213,475.089C472.555,471.386 478.81,469.012 485.267,468.253ZM491.227,450.024C497.139,449.803 503.086,451.094 508.477,453.509C517.624,457.621 525.097,465.306 528.933,474.577C530.994,479.502 532.051,484.854 532,490.193C531.968,493.004 529.677,495.568 526.891,495.916C524.239,496.359 521.419,494.748 520.447,492.248C519.912,490.991 520.033,489.602 519.95,488.269C519.548,480.524 515.668,473.06 509.626,468.215C504.963,464.423 499.054,462.185 493.043,462.001C491.85,461.963 490.603,461.979 489.511,461.435C487.308,460.46 485.833,458.07 486.007,455.658C486.102,452.848 488.435,450.338 491.227,450.024Z"/>
</svg>
