<?xml version="1.0" encoding="UTF-8" standalone="no"?>
<!DOCTYPE svg PUBLIC "-//W3C//DTD SVG 1.1//EN" "http://www.w3.org/Graphics/SVG/1.1/DTD/svg11.dtd">
<svg width="100%" height="100%" viewBox="0 0 1000 1000" version="1.1" xmlns="http://www.w3.org/2000/svg" xmlns:xlink="http://www.w3.org/1999/xlink" xml:space="preserve" xmlns:serif="http://www.serif.com/" style="fill-rule:evenodd;clip-rule:evenodd;stroke-linejoin:round;stroke-miterlimit:2;">
    <g id="_-ffffffff" serif:id="#ffffffff">
        <path d="M412.295,0.578C471.401,-1.637 530.854,11.273 584.738,35.415C676.181,76.516 750.885,153.341 789.234,246.017C809.832,295.25 820.4,348.755 819.894,402.133C819.577,430.23 796.669,455.859 768.825,459.34C742.31,463.77 714.118,447.664 704.404,422.668C699.057,410.107 700.259,396.216 699.437,382.895C695.418,305.47 656.627,230.861 596.224,182.419C549.617,144.513 490.543,122.143 430.457,120.307C418.529,119.928 406.062,120.086 395.146,114.644C373.124,104.898 358.379,81.009 360.12,56.899C361.069,28.802 384.388,3.711 412.295,0.578Z" style="fill-rule:nonzero;"/>
        <path d="M352.716,182.798C372.143,181.058 391.887,178.432 411.346,181.185C435.836,185.298 456.181,206.592 459.377,231.209C463.807,257.724 447.702,285.916 422.674,295.63C410.112,300.977 396.222,299.743 382.933,300.597C305.507,304.584 230.961,343.376 182.519,403.747C145.246,449.531 122.971,507.371 120.471,566.413C120.092,574.829 120.25,583.309 118.889,591.662C114.396,616.659 92.184,637.352 66.777,639.598C41.812,642.857 16.088,628.176 5.773,605.299C-1.283,591.282 -0.207,575.177 0.552,559.99C3.78,496.043 22.321,432.793 54.975,377.675C84.242,327.619 124.743,284.334 172.236,251.143C225.646,214.123 288.168,190.392 352.716,182.798Z" style="fill-rule:nonzero;"/>
        <path d="M922.189,362.614C938.009,357.867 955.855,359.608 970.093,368.182C988.508,378.656 1000.31,399.475 999.994,420.675C999.931,491.867 980.566,563.027 943.989,624.157C900.198,698.039 832.012,757.239 752.499,789.829C703.677,810.016 650.741,820.331 597.901,819.856C570.816,819.54 545.883,798.277 541.169,771.604C535.22,744.361 551.389,714.429 577.366,704.367C588.883,699.431 601.635,700.127 613.88,699.526C673.776,697.058 732.407,674.118 778.412,635.77C830.81,592.833 866.501,530.057 876.658,463.105C879.537,446.905 879.505,430.452 880.454,414.125C882.1,390.553 899.724,369.353 922.189,362.614Z" style="fill-rule:nonzero;"/>
        <path d="M225.741,541.733C252.857,534.487 283.549,549.485 294.749,575.146C301.014,588.213 299.812,603.021 300.635,617.07C304.621,694.527 343.413,769.041 403.784,817.515C449.568,854.788 507.408,877.032 566.418,879.563C574.835,879.943 583.346,879.784 591.699,881.145C616.696,885.638 637.389,907.85 639.635,933.226C642.926,958.191 628.213,983.946 605.337,994.293C589.263,1002.2 570.88,999.83 553.635,999.071C457.89,993.185 364.929,951.103 297.471,882.885C230.74,817.009 188.879,726.706 181.443,633.238C180.557,619.411 179.134,605.458 180.747,591.631C183.532,567.837 202.421,547.08 225.741,541.733Z" style="fill-rule:nonzero;"/>
    </g>
</svg>
