<?xml version="1.0" encoding="UTF-8" ?>
<!DOCTYPE svg PUBLIC "-//W3C//DTD SVG 1.1//EN" "http://www.w3.org/Graphics/SVG/1.1/DTD/svg11.dtd">
<svg width="512pt" height="512pt" viewBox="0 0 512 512" version="1.1" xmlns="http://www.w3.org/2000/svg">
<g id="#212121ff">
<path fill="#212121" opacity="1.00" d=" M 126.92 51.70 C 138.49 50.06 150.03 53.40 160.78 57.40 C 174.13 62.52 186.68 69.56 198.64 77.37 C 200.15 78.44 201.89 79.34 203.76 78.58 C 245.40 67.76 289.75 67.39 331.53 77.75 C 333.96 78.18 336.73 79.76 338.99 77.99 C 352.25 69.31 366.18 61.44 381.16 56.11 C 390.82 52.80 401.09 50.21 411.36 51.66 C 420.35 74.00 422.57 99.64 414.24 122.53 C 422.53 131.44 429.33 141.76 434.01 153.00 C 439.42 165.94 441.96 180.00 441.93 194.00 C 441.89 212.27 439.94 230.70 434.25 248.13 C 429.75 261.98 422.68 275.09 412.87 285.90 C 402.31 297.65 388.75 306.45 374.19 312.41 C 356.41 319.78 337.32 323.28 318.28 325.41 C 331.41 337.38 336.18 355.79 336.44 373.01 C 336.45 397.69 336.29 422.38 336.14 447.07 C 336.13 450.46 336.66 454.28 339.43 456.59 C 343.08 459.82 348.17 459.91 352.74 460.55 C 303.49 460.46 254.25 460.74 205.00 460.74 C 198.76 460.68 192.49 461.08 186.26 460.52 C 190.85 460.29 195.93 459.82 199.34 456.35 C 202.14 453.70 202.45 449.62 202.42 446.00 C 202.26 431.56 202.22 417.13 202.05 402.69 C 190.52 404.97 178.71 406.38 166.95 405.40 C 155.38 404.51 143.84 401.26 133.99 395.02 C 126.13 390.09 119.52 383.24 114.72 375.32 C 111.69 370.37 110.02 364.77 107.45 359.60 C 102.73 349.90 96.61 340.72 88.47 333.56 C 83.35 328.89 76.63 326.23 72.10 320.87 C 71.03 319.53 69.83 317.94 70.08 316.13 C 70.59 314.18 72.63 313.25 74.38 312.71 C 81.39 310.67 88.86 312.14 95.55 314.63 C 108.17 319.48 118.27 329.44 125.09 340.94 C 132.37 352.89 143.68 362.85 157.42 366.43 C 172.56 370.48 188.60 367.39 202.82 361.51 C 204.24 354.24 205.87 346.91 209.25 340.27 C 211.85 334.74 215.67 329.90 220.03 325.66 C 195.96 322.88 171.55 317.85 150.34 305.63 C 134.78 296.78 121.57 283.75 112.93 268.04 C 100.44 245.57 96.64 219.39 96.60 194.00 C 96.44 173.48 102.23 152.83 113.81 135.82 C 116.97 131.02 120.74 126.69 124.42 122.29 C 115.41 99.68 118.11 73.94 126.92 51.70 Z" />
</g>
</svg>
