<?xml version="1.0" encoding="UTF-8" standalone="no"?>
<!DOCTYPE svg PUBLIC "-//W3C//DTD SVG 1.1//EN" "http://www.w3.org/Graphics/SVG/1.1/DTD/svg11.dtd">
<svg width="100%" height="100%" viewBox="0 0 1000 1000" version="1.1" xmlns="http://www.w3.org/2000/svg" xmlns:xlink="http://www.w3.org/1999/xlink" xml:space="preserve" xmlns:serif="http://www.serif.com/" style="fill-rule:evenodd;clip-rule:evenodd;stroke-linejoin:round;stroke-miterlimit:2;">
    <path d="M1000,-0L-0,-0L-0,1000L1000,1000L1000,-0ZM450.563,454.528C451.437,452.37 453.405,450.693 455.681,450.191C456.904,449.915 458.164,450.025 459.406,450.008C487.164,450.006 514.923,450.012 542.681,450.004C543.773,450.01 544.869,450.232 545.855,450.71C547.98,451.709 549.559,453.791 549.92,456.115C550.067,457.107 549.998,458.111 550.007,459.11L550.007,540.89C549.996,542.185 550.114,543.519 549.718,544.775C549.012,547.199 546.964,549.176 544.509,549.771C543.301,550.087 542.044,549.979 540.812,549.994C512.927,549.99 485.041,549.996 457.156,549.99C454.781,549.968 452.481,548.675 451.2,546.68C450.502,545.656 450.182,544.437 449.984,543.229C450.126,542.081 450.063,540.921 450.07,539.769L450.07,460.044C450.067,458.953 450.121,457.857 449.984,456.773C450.121,456.013 450.27,455.247 450.563,454.528ZM504.351,492.647C503.987,493.159 503.645,493.689 503.231,494.165C503.137,491.956 503.216,489.746 503.188,487.535C498.458,487.537 493.731,487.537 489.001,487.535C488.998,503.405 489,519.276 489.001,535.146C493.932,535.148 498.865,535.148 503.796,535.146L503.796,510.454C503.845,508.318 504.065,506.146 504.848,504.141C505.411,502.687 506.382,501.35 507.734,500.536C509.297,499.559 511.188,499.283 513.003,499.328C514.491,499.356 516.024,499.701 517.238,500.599C518.38,501.426 519.133,502.685 519.577,504.003C520.255,506.014 520.363,508.157 520.414,510.262C520.416,518.557 520.412,526.851 520.416,535.146C525.332,535.148 530.248,535.148 535.164,535.146C535.186,528.908 535.115,522.668 535.212,516.43C535.186,512.435 535.291,508.435 535.046,504.445C534.772,500.657 534.146,496.775 532.261,493.424C530.886,490.95 528.674,488.962 526.064,487.866C523.016,486.549 519.641,486.269 516.356,486.327C511.67,486.454 507.105,488.851 504.351,492.647ZM464.867,487.537L464.867,535.146C469.798,535.148 474.731,535.148 479.662,535.146C479.664,519.276 479.666,503.405 479.662,487.535C474.729,487.539 469.798,487.535 464.867,487.537ZM470.885,463.924C468.428,464.319 466.187,465.849 464.925,467.996C463.711,470.003 463.373,472.518 464.049,474.766C464.921,477.852 467.662,480.313 470.831,480.825C473.31,481.276 475.962,480.518 477.862,478.872C479.733,477.272 480.872,474.835 480.84,472.367C480.87,470.035 479.843,467.729 478.139,466.145C476.243,464.325 473.476,463.483 470.885,463.924Z"/>
</svg>
