<?xml version="1.0" encoding="UTF-8" standalone="no"?>
<!DOCTYPE svg PUBLIC "-//W3C//DTD SVG 1.1//EN" "http://www.w3.org/Graphics/SVG/1.1/DTD/svg11.dtd">
<svg width="100%" height="100%" viewBox="0 0 1000 1000" version="1.1" xmlns="http://www.w3.org/2000/svg" xmlns:xlink="http://www.w3.org/1999/xlink" xml:space="preserve" xmlns:serif="http://www.serif.com/" style="fill-rule:evenodd;clip-rule:evenodd;stroke-linejoin:round;stroke-miterlimit:2;">
    <path d="M5.632,45.283C14.37,23.699 34.049,6.932 56.81,1.91C69.039,-0.854 81.642,0.248 94.058,0.08C371.642,0.061 649.225,0.117 926.809,0.042C937.731,0.098 948.691,2.32 958.55,7.1C979.797,17.089 995.593,37.907 999.197,61.153C1000.67,71.067 999.981,81.112 1000.07,91.101L1000.07,908.896C999.962,921.854 1001.14,935.185 997.18,947.751C990.123,971.986 969.64,991.759 945.088,997.715C933.008,1000.87 920.442,999.787 908.119,999.937C629.266,999.899 350.413,999.955 71.56,999.899C47.81,999.675 24.807,986.755 11.999,966.795C5.016,956.564 1.823,944.371 -0.156,932.291C1.263,920.808 0.628,909.214 0.703,897.694L0.703,100.437C0.665,89.533 1.207,78.573 -0.156,67.725C1.207,60.126 2.701,52.471 5.632,45.283M208.848,139.236C184.277,143.194 161.872,158.486 149.25,179.957C137.114,200.029 133.735,225.179 140.493,247.659C149.213,278.522 176.622,303.131 208.307,308.247C233.102,312.765 259.615,305.184 278.622,288.717C297.331,272.715 308.72,248.35 308.403,223.666C308.702,200.346 298.432,177.287 281.386,161.454C262.434,143.25 234.764,134.829 208.848,139.236M543.509,426.472C539.869,431.588 536.452,436.891 532.307,441.652C531.373,419.564 532.157,397.457 531.877,375.351C484.583,375.369 437.308,375.369 390.014,375.351C389.977,534.055 389.996,692.759 390.014,851.464C439.325,851.483 488.654,851.483 537.964,851.464L537.964,604.538C538.45,583.179 540.653,561.464 548.476,541.411C554.115,526.867 563.824,513.498 577.342,505.357C592.969,495.592 611.883,492.829 630.031,493.277C644.912,493.557 660.241,497.011 672.377,505.992C683.804,514.264 691.329,526.848 695.772,540.03C702.55,560.139 703.633,581.573 704.137,602.615C704.156,685.571 704.118,768.508 704.156,851.464C753.317,851.483 802.478,851.483 851.639,851.464C851.863,789.084 851.153,726.685 852.124,664.305C851.863,624.348 852.908,584.355 850.463,544.455C847.718,506.571 841.463,467.754 822.605,434.239C808.863,409.5 786.738,389.615 760.636,378.655C730.165,365.492 696.407,362.692 663.565,363.27C616.7,364.54 571.049,388.514 543.509,426.472M148.671,375.369L148.671,851.464C197.982,851.483 247.311,851.483 296.621,851.464C296.64,692.759 296.659,534.055 296.621,375.351C247.292,375.388 197.982,375.351 148.671,375.369Z" style="fill-rule:nonzero;"/>
</svg>
