<?xml version="1.0" encoding="UTF-8" standalone="no"?>
<!DOCTYPE svg PUBLIC "-//W3C//DTD SVG 1.1//EN" "http://www.w3.org/Graphics/SVG/1.1/DTD/svg11.dtd">
<svg width="100%" height="100%" viewBox="0 0 1000 1000" version="1.1" xmlns="http://www.w3.org/2000/svg" xmlns:xlink="http://www.w3.org/1999/xlink" xml:space="preserve" xmlns:serif="http://www.serif.com/" style="fill-rule:evenodd;clip-rule:evenodd;stroke-linejoin:round;stroke-miterlimit:2;">
    <path d="M1000,-0L-0,-0L-0,1000L1000,1000L1000,-0ZM456.961,532.352C466.428,522.957 475.873,513.541 485.352,504.158C486.932,505.682 488.436,507.281 490.031,508.789C492.555,511.164 495.953,512.568 499.414,512.697C503.219,512.863 507.07,511.473 509.865,508.883C511.502,507.352 513.033,505.711 514.648,504.158C524.553,513.961 534.418,523.805 544.316,533.615C544.535,533.832 544.744,534.061 544.953,534.291C543.721,534.855 542.377,535.172 541.018,535.154C513.672,535.156 486.328,535.156 458.982,535.154C457.623,535.174 456.279,534.855 455.047,534.293C455.65,533.611 456.324,532.998 456.961,532.352ZM450.865,469.891C451.713,470.65 452.49,471.484 453.307,472.279C462.123,481.039 470.941,489.801 479.76,498.561C480.242,499.033 480.725,499.508 481.187,500C480.373,500.859 479.514,501.672 478.68,502.512C469.895,511.238 461.111,519.967 452.328,528.695C451.85,529.176 451.373,529.66 450.865,530.109C450.367,529.027 450.068,527.857 450,526.668L450,473.334C450.066,472.143 450.371,470.975 450.865,469.891ZM547.674,471.305C548.15,470.824 548.627,470.34 549.135,469.891C549.629,470.975 549.934,472.143 550,473.332L550,526.666C549.934,527.857 549.629,529.025 549.135,530.109C548.287,529.35 547.51,528.514 546.693,527.721C537.875,518.961 529.059,510.199 520.24,501.439C519.758,500.967 519.275,500.492 518.813,500C519.625,499.141 520.486,498.328 521.318,497.488C530.105,488.762 538.889,480.033 547.674,471.305ZM455.047,465.709C456.279,465.145 457.623,464.826 458.982,464.846C486.328,464.844 513.672,464.844 541.018,464.846C542.377,464.826 543.721,465.145 544.953,465.709C544.443,466.287 543.877,466.811 543.334,467.357C531.324,479.307 519.314,491.256 507.307,503.205C506.291,504.229 505.236,505.27 503.924,505.904C501.506,507.145 498.494,507.145 496.074,505.904C494.762,505.268 493.709,504.229 492.693,503.203C480.686,491.254 468.676,479.307 456.666,467.357C456.123,466.811 455.557,466.287 455.047,465.709Z"/>
</svg>
