<?xml version="1.0" encoding="UTF-8" ?>
<!DOCTYPE svg PUBLIC "-//W3C//DTD SVG 1.1//EN" "http://www.w3.org/Graphics/SVG/1.1/DTD/svg11.dtd">
<svg width="512pt" height="512pt" viewBox="0 0 512 512" version="1.1" xmlns="http://www.w3.org/2000/svg">
<g id="#000000ff">
<path fill="#000000" opacity="1.00" d=" M 25.84 80.43 C 32.15 77.54 39.03 75.91 45.99 76.01 C 186.00 76.00 326.00 76.00 466.01 76.01 C 472.97 75.91 479.85 77.54 486.16 80.43 C 483.55 83.39 480.65 86.07 477.87 88.87 C 416.38 150.05 354.89 211.23 293.41 272.41 C 288.21 277.65 282.81 282.98 276.09 286.23 C 263.71 292.58 248.29 292.58 235.90 286.23 C 229.18 282.97 223.79 277.65 218.59 272.40 C 157.11 211.22 95.62 150.05 34.13 88.87 C 31.35 86.07 28.45 83.39 25.84 80.43 Z" />
<path fill="#000000" opacity="1.00" d=" M 4.43 101.84 C 8.77 105.73 12.75 110.00 16.93 114.07 C 62.07 158.92 107.22 203.78 152.37 248.63 C 154.84 251.05 157.31 253.48 159.68 256.00 C 155.51 260.40 151.11 264.56 146.84 268.86 C 101.86 313.54 56.89 358.23 11.92 402.92 C 9.47 405.38 7.03 407.86 4.43 410.16 C 1.88 404.62 0.35 398.63 0.00 392.54 L 0.00 119.47 C 0.34 113.37 1.90 107.39 4.43 101.84 Z" />
<path fill="#000000" opacity="1.00" d=" M 500.09 109.08 C 502.53 106.62 504.97 104.14 507.57 101.84 C 510.10 107.39 511.66 113.37 512.00 119.46 L 512.00 392.53 C 511.66 398.63 510.10 404.61 507.57 410.16 C 503.23 406.27 499.25 401.99 495.07 397.93 C 449.92 353.08 404.78 308.22 359.63 263.37 C 357.16 260.95 354.69 258.52 352.32 256.00 C 356.48 251.60 360.89 247.44 365.15 243.14 C 410.14 198.46 455.11 153.77 500.09 109.08 Z" />
<path fill="#000000" opacity="1.00" d=" M 35.64 421.64 C 84.11 373.54 132.47 325.33 181.00 277.29 C 189.09 285.09 196.79 293.28 204.96 301.00 C 217.88 313.16 235.28 320.35 253.00 321.01 C 272.48 321.86 292.20 314.74 306.51 301.48 C 314.89 293.64 322.73 285.24 331.00 277.29 C 381.71 327.48 432.22 377.88 482.90 428.11 C 484.02 429.22 485.09 430.39 486.16 431.57 C 479.85 434.46 472.97 436.08 466.01 435.99 C 326.00 436.00 186.00 436.00 45.99 435.99 C 39.03 436.09 32.15 434.46 25.84 431.58 C 28.93 428.09 32.38 424.95 35.64 421.64 Z" />
</g>
</svg>
