<?xml version="1.0" encoding="UTF-8" standalone="no"?>
<!DOCTYPE svg PUBLIC "-//W3C//DTD SVG 1.1//EN" "http://www.w3.org/Graphics/SVG/1.1/DTD/svg11.dtd">
<svg width="100%" height="100%" viewBox="0 0 1000 1080" version="1.1" xmlns="http://www.w3.org/2000/svg" xmlns:xlink="http://www.w3.org/1999/xlink" xml:space="preserve" xmlns:serif="http://www.serif.com/" style="fill-rule:evenodd;clip-rule:evenodd;stroke-linejoin:round;stroke-miterlimit:2;">
    <path d="M575.606,1.298C581.45,-1.23 587.723,0.415 593.501,2.167C646.236,13.348 698.998,24.356 751.68,35.791C755.719,36.607 759.692,37.917 763.838,38.211C767.382,37.984 769.455,35.002 771.515,32.527C782.936,18.444 798.852,7.731 816.627,3.705C831.78,0.228 847.789,1.739 862.474,6.594C875.769,10.874 888.381,17.896 898.117,28.047C914.875,44.818 923.007,69.588 919.744,93.06C916.668,121.307 897.515,146.785 871.703,158.368C848.338,169.361 819.85,169.281 796.859,157.351C779.218,148.176 764.132,133.344 756.522,114.794C753.753,108.722 752.483,102.141 750.918,95.695C750.142,92.284 746.344,90.987 743.308,90.439C710.808,83.578 678.362,76.489 645.875,69.548C635.269,66.846 624.463,65.001 613.709,62.994C610.165,62.312 606.501,61.189 602.89,62.045C600.148,63.529 599.492,66.926 598.302,69.561C582.226,119.274 566.003,168.933 549.846,218.619C549.365,220.545 548.148,223.153 550.087,224.718C551.692,225.293 553.364,225.614 555.089,225.708C633.691,230.402 711.544,252.564 779.834,291.992C787.671,296.566 795.602,301.073 802.57,306.918C804.322,308.389 806.636,310.034 809.03,309.058C811.304,307.974 813.069,306.088 814.995,304.51C824.558,295.964 835.832,289.277 848.03,285.278C864.748,279.647 882.697,277.293 900.257,279.34C923.007,281.693 945.008,291.229 962.034,306.543C991.043,332.543 1006.38,374.258 997.476,412.656C990.388,444.822 967.798,471.811 940.167,488.837C936.448,490.509 937.759,495.243 938.254,498.386C945.663,541.813 942.012,587.26 926.123,628.466C924.518,633.401 921.616,637.762 920.145,642.737C908.71,668.081 893.088,691.406 875.046,712.511C847.602,744.851 813.938,771.6 777.319,792.838C745.328,811.335 711.263,826.208 676.008,837.268C615.355,856.006 551.665,865.007 488.177,863.429C435.321,861.917 382.465,854.602 331.723,839.515C297.19,829.27 263.687,815.468 232.096,798.161C230.919,796.396 229.033,796.075 227.188,795.433C191.037,775.131 157.707,749.492 130.036,718.543C110.362,696.489 93.082,672.04 80.804,645.064C61.465,603.67 54.764,556.793 60.275,511.533C61.037,505.488 61.692,499.095 59.352,493.304C57.025,487.299 51.795,483.153 46.847,479.341C30.543,466.916 16.607,450.894 8.462,431.929C-1.449,408.644 -2.398,381.962 4.276,357.674C12.795,327.247 35.318,301.086 64.3,288.421C78.945,281.961 94.995,278.537 111.017,278.912C133.941,278.952 156.049,287.11 175.816,298.224C179.749,300.632 184.095,302.33 187.8,305.125C190.314,307.078 193.337,308.937 196.667,308.576C199.797,308.081 202.606,306.516 205.187,304.751C221.972,292.901 239.84,282.63 258.324,273.655C297.845,254.624 339.627,240.246 382.599,231.379C416.41,224.29 450.916,220.693 485.435,219.85C487.682,219.796 489.969,219.837 492.189,219.315C494.61,218.299 495.961,215.878 496.723,213.484C510.98,167.89 525.799,122.484 540.217,76.944C546.396,57.176 552.481,37.369 558.861,17.668C561.563,9.938 568.129,4.254 575.606,1.298M337.754,417.578C309.842,420.534 285.019,442.12 278.666,469.511C273.865,488.583 277.93,509.688 289.66,525.51C304.412,546.28 331.174,558.036 356.438,554.011C383.696,549.691 407.101,527.703 413.44,500.887C418.376,479.114 411.474,455.254 396.308,438.977C384.645,426.151 367.927,417.578 350.46,417.096C346.207,417.056 341.967,417.15 337.754,417.578M642.745,417.752C617.133,422.607 594.918,442.548 587.603,467.625C584.995,476.693 584.674,486.349 586.225,495.658C589.421,518.207 604.441,538.817 625.212,548.327C636.192,553.636 648.603,555.268 660.694,554.653C676.569,553.569 691.428,545.745 702.636,534.671C715.288,521.899 723.968,504.365 723.434,486.122C723.581,469.845 717.027,453.93 706.568,441.612C691.362,423.329 666.338,413.311 642.745,417.752M641.408,646.442C637.543,647.257 634.266,649.544 631.123,651.778C617.16,661.702 601.967,669.847 586.051,676.146C551.304,689.641 513.374,695.726 476.22,691.54C438.076,687.073 401.029,673.431 369.144,652.005C365.44,649.504 361.588,646.87 357.067,646.161C347.197,644.208 336.885,648.568 330.225,655.871C324.808,661.046 322.588,669.232 324.835,676.414C327.135,683.783 331.522,690.657 337.688,695.392C368.97,719.72 406.633,735.221 445.552,742.056C472.449,746.844 499.96,747.94 527.177,745.68C558.995,742.657 590.625,735.368 619.835,722.194C633.785,715.922 646.865,707.83 659.062,698.602C666.726,692.65 673.36,684.666 675.74,675.09C678.241,664.938 672.223,654.078 663.088,649.518C656.534,645.893 648.71,644.783 641.408,646.442Z" style="fill-rule:nonzero;"/>
</svg>
