<?xml version="1.0" encoding="UTF-8" standalone="no"?>
<!DOCTYPE svg PUBLIC "-//W3C//DTD SVG 1.1//EN" "http://www.w3.org/Graphics/SVG/1.1/DTD/svg11.dtd">
<svg width="100%" height="100%" viewBox="0 0 1000 1000" version="1.1" xmlns="http://www.w3.org/2000/svg" xmlns:xlink="http://www.w3.org/1999/xlink" xml:space="preserve" xmlns:serif="http://www.serif.com/" style="fill-rule:evenodd;clip-rule:evenodd;stroke-linejoin:round;stroke-miterlimit:2;">
    <path d="M914.47,94.289C931.436,88.142 950.111,84.486 968.05,88.186C980.284,90.78 991.62,99.197 995.938,111.181C999.52,120.983 1000.7,131.669 999.609,142.032C997.899,163.243 907.778,744.224 894.644,827.049C893.274,834.89 892.094,842.762 890.945,850.648C887.584,867.363 881.319,884.063 869.513,896.71C860.138,906.94 846.43,912.91 832.603,913.249C813.765,913.897 795.399,908.119 778.227,900.911C769.56,897.698 761.497,893.114 753.184,889.105C731.678,878.536 476.748,703.099 456.598,686.192C451.439,681.947 447.253,676.685 443.627,671.143C436.655,661.06 434.267,647.735 438.04,636.002C440.03,628.19 444.909,621.601 449.876,615.425C452.898,612.094 456.082,608.939 459.354,605.873C499.329,569.2 714.682,362.956 730.219,347.538C734.965,342.851 739.166,337.603 742.777,331.988C747.803,324.19 752.771,316.068 754.893,306.929C755.454,303.038 756.073,298.306 753.139,295.181C750.56,292.808 746.845,292.764 743.573,292.838C735.495,293.118 728.155,296.788 720.77,299.648C715.257,301.77 710.069,304.63 704.983,307.607C681.252,320.534 393.142,515.34 331.543,556.966C322.92,562.788 314.164,568.389 305.689,574.418C290.727,584.471 272.376,587.463 254.747,588.937C245.195,589.954 235.599,588.967 226.063,588.185C204.306,586.181 183.375,579.607 162.636,573.106C136.59,565.029 110.559,556.818 84.705,548.136C63.184,541.371 41.782,534.222 20.497,526.763C15.014,524.98 11.034,520.499 7.26,516.372C1.364,509.738 -1.849,500.113 1.129,491.475C4.961,478.416 16.606,469.852 27.69,463.086C43.108,452.93 60.9,447.476 77.63,440.003C171.406,401.576 844.204,123.135 914.47,94.289Z" style="fill-rule:nonzero;"/>
</svg>
