<?xml version="1.0" encoding="UTF-8" standalone="no"?>
<!DOCTYPE svg PUBLIC "-//W3C//DTD SVG 1.1//EN" "http://www.w3.org/Graphics/SVG/1.1/DTD/svg11.dtd">
<svg width="100%" height="100%" viewBox="0 0 1000 1000" version="1.1" xmlns="http://www.w3.org/2000/svg" xmlns:xlink="http://www.w3.org/1999/xlink" xml:space="preserve" xmlns:serif="http://www.serif.com/" style="fill-rule:evenodd;clip-rule:evenodd;stroke-linejoin:round;stroke-miterlimit:2;">
    <path d="M1000,-0L-0,-0L-0,1000L1000,1000L1000,-0ZM541.447,459.429C543.144,458.814 545.011,458.449 546.805,458.819C548.028,459.078 549.162,459.92 549.594,461.118C549.952,462.098 550.07,463.167 549.961,464.203C549.79,466.324 540.778,524.422 539.464,532.705C539.327,533.489 539.209,534.276 539.094,535.065C538.758,536.736 538.132,538.406 536.951,539.671C536.014,540.694 534.643,541.291 533.26,541.325C531.376,541.39 529.54,540.812 527.823,540.091C526.956,539.77 526.15,539.311 525.318,538.91C523.168,537.854 497.675,520.31 495.66,518.619C495.144,518.195 494.725,517.669 494.363,517.114C493.665,516.106 493.427,514.774 493.804,513.6C494.003,512.819 494.491,512.16 494.988,511.543C495.29,511.209 495.608,510.894 495.935,510.587C499.933,506.92 521.468,486.296 523.022,484.754C523.496,484.285 523.917,483.76 524.278,483.199C524.78,482.419 525.277,481.607 525.489,480.693C525.545,480.304 525.607,479.831 525.314,479.518C525.056,479.281 524.684,479.276 524.357,479.284C523.549,479.312 522.815,479.679 522.077,479.965C521.526,480.177 521.007,480.463 520.498,480.761C518.125,482.053 489.314,501.534 483.154,505.697C482.292,506.279 481.416,506.839 480.569,507.442C479.073,508.447 477.238,508.746 475.475,508.894C474.519,508.995 473.56,508.897 472.606,508.819C470.431,508.618 468.337,507.961 466.264,507.311C463.659,506.503 461.056,505.682 458.47,504.814C456.318,504.137 454.178,503.422 452.05,502.676C451.501,502.498 451.103,502.05 450.726,501.637C450.136,500.974 449.815,500.011 450.113,499.148C450.496,497.842 451.661,496.985 452.769,496.309C454.311,495.293 456.09,494.748 457.763,494C467.141,490.158 534.42,462.314 541.447,459.429Z"/>
</svg>
